  0
SECTION
  2
HEADER
  9
$ACADVER
  1
AC1009
  9
$FILLMODE
 70
0
  9
$EXTMIN
 10
0.9238
 20
-0.5762
 30
0.0000
  9
$EXTMAX
 10
108.5762
 20
193.0287
 30
0.0000
  0
ENDSEC
  0
SECTION
  2
TABLES
  0
TABLE
  2
LTYPE
 70
1
  0
LTYPE
  2
CONTINUOUS
 70
64
  3
Solid line
 72
65
 73
0
 40
0
  0
ENDTAB
  0
TABLE
  2
LAYER
 70
255
  0
LAYER
  2
1
 70
64
 62
12
  6
CONTINUOUS
  0
LAYER
  2
16
 70
64
 62
132
  6
CONTINUOUS
  0
LAYER
  2
17
 70
64
 62
110
  6
CONTINUOUS
  0
LAYER
  2
18
 70
64
 62
110
  6
CONTINUOUS
  0
LAYER
  2
19
 70
64
 62
53
  6
CONTINUOUS
  0
LAYER
  2
20
 70
64
 62
31
  6
CONTINUOUS
  0
LAYER
  2
21
 70
64
 62
253
  6
CONTINUOUS
  0
LAYER
  2
22
 70
64
 62
253
  6
CONTINUOUS
  0
LAYER
  2
23
 70
64
 62
53
  6
CONTINUOUS
  0
LAYER
  2
24
 70
64
 62
53
  6
CONTINUOUS
  0
LAYER
  2
25
 70
64
 62
253
  6
CONTINUOUS
  0
LAYER
  2
26
 70
64
 62
253
  6
CONTINUOUS
  0
LAYER
  2
27
 70
64
 62
253
  6
CONTINUOUS
  0
LAYER
  2
28
 70
64
 62
253
  6
CONTINUOUS
  0
LAYER
  2
37
 70
64
 62
53
  6
CONTINUOUS
  0
LAYER
  2
39
 70
64
 62
12
  6
CONTINUOUS
  0
LAYER
  2
40
 70
64
 62
132
  6
CONTINUOUS
  0
LAYER
  2
41
 70
64
 62
12
  6
CONTINUOUS
  0
LAYER
  2
42
 70
64
 62
132
  6
CONTINUOUS
  0
LAYER
  2
43
 70
64
 62
110
  6
CONTINUOUS
  0
LAYER
  2
44
 70
64
 62
253
  6
CONTINUOUS
  0
LAYER
  2
48
 70
64
 62
253
  6
CONTINUOUS
  0
LAYER
  2
49
 70
64
 62
253
  6
CONTINUOUS
  0
LAYER
  2
51
 70
64
 62
253
  6
CONTINUOUS
  0
LAYER
  2
52
 70
64
 62
253
  6
CONTINUOUS
  0
ENDTAB
  0
ENDSEC
  0
SECTION
  2
BLOCKS
  0
BLOCK
  8
0
  2
RECT
 70
64
 10
0.0000
 20
0.0000
 30
0.0000
  3
RECT
  0
SOLID
  8
0
 10
-0.5000
 20
-0.5000
 30
0.0000
 11
0.5000
 21
-0.5000
 31
0.0000
 12
-0.5000
 22
0.5000
 32
0.0000
 13
0.5000
 23
0.5000
 33
0.0000
  0
ENDBLK
  8
0
  0
BLOCK
  8
0
  2
PIE
 70
64
 10
0.0000
 20
0.0000
 30
0.0000
  3
PIE
  0
CIRCLE
  8
0
 10
0.0000
 20
0.0000
 30
0.0000
 40
0.5000
  0
ENDBLK
  8
0
  0
BLOCK
  8
0
  2
OCTAGONP
 70
64
 10
0.0000
 20
0.0000
 30
0.0000
  3
OCTAGONP
  0
POLYLINE
  8
0
 66
1
 10
0.0000
 20
0.0000
 30
0.0000
 40
0.0000
 41
0.0000
 70
1
  0
VERTEX
  8
0
 10
-0.5000
 20
-0.2071
 30
0.0000
  0
VERTEX
  8
0
 10
-0.5000
 20
0.2071
 30
0.0000
  0
VERTEX
  8
0
 10
-0.2071
 20
0.5000
 30
0.0000
  0
VERTEX
  8
0
 10
0.2071
 20
0.5000
 30
0.0000
  0
VERTEX
  8
0
 10
0.5000
 20
0.2071
 30
0.0000
  0
VERTEX
  8
0
 10
0.5000
 20
-0.2071
 30
0.0000
  0
VERTEX
  8
0
 10
0.2071
 20
-0.5000
 30
0.0000
  0
VERTEX
  8
0
 10
-0.2071
 20
-0.5000
 30
0.0000
  0
SEQEND
  8
0
  0
ENDBLK
  8
0
  0
BLOCK
  8
0
  2
SQUAREP
 70
64
 10
0.0000
 20
0.0000
 30
0.0000
  3
SQUAREP
  0
SOLID
  8
0
 10
-0.5000
 20
-0.5000
 30
0.0000
 11
0.5000
 21
-0.5000
 31
0.0000
 12
-0.5000
 22
0.5000
 32
0.0000
 13
0.5000
 23
0.5000
 33
0.0000
  0
ENDBLK
  8
0
  0
BLOCK
  8
0
  2
ROUNDP
 70
64
 10
0.0000
 20
0.0000
 30
0.0000
  3
ROUNDP
  0
CIRCLE
  8
0
 10
0.0000
 20
0.0000
 30
0.0000
 40
0.5000
  0
ENDBLK
  8
0
  0
BLOCK
  8
0
  2
ANNULUSP
 70
64
 10
0.0000
 20
0.0000
 30
0.0000
  3
ANNULUSP
  0
CIRCLE
  8
0
 10
0.0000
 20
0.0000
 30
0.0000
 40
0.5000
  0
ENDBLK
  8
0
  0
BLOCK
  8
0
  2
THERMALP
 70
64
 10
0.0000
 20
0.0000
 30
0.0000
  3
THERMALP
  0
LINE
  8
0
 10
-0.2379
 20
0.4500
 30
0.0000
 11
0.2379
 21
0.4500
 31
0.0000
  0
LINE
  8
0
 10
0.4500
 20
0.2379
 30
0.0000
 11
0.4500
 21
-0.2379
 31
0.0000
  0
LINE
  8
0
 10
0.2379
 20
-0.4500
 30
0.0000
 11
-0.2379
 21
-0.4500
 31
0.0000
  0
LINE
  8
0
 10
-0.4500
 20
-0.2379
 30
0.0000
 11
-0.4500
 21
0.2379
 31
0.0000
  0
ENDBLK
  8
0
  0
BLOCK
  8
0
  2
OCTAGONV
 70
64
 10
0.0000
 20
0.0000
 30
0.0000
  3
OCTAGONV
  0
POLYLINE
  8
0
 66
1
 10
0.0000
 20
0.0000
 30
0.0000
 40
0.0000
 41
0.0000
 70
1
  0
VERTEX
  8
0
 10
-0.5000
 20
-0.2071
 30
0.0000
  0
VERTEX
  8
0
 10
-0.5000
 20
0.2071
 30
0.0000
  0
VERTEX
  8
0
 10
-0.2071
 20
0.5000
 30
0.0000
  0
VERTEX
  8
0
 10
0.2071
 20
0.5000
 30
0.0000
  0
VERTEX
  8
0
 10
0.5000
 20
0.2071
 30
0.0000
  0
VERTEX
  8
0
 10
0.5000
 20
-0.2071
 30
0.0000
  0
VERTEX
  8
0
 10
0.2071
 20
-0.5000
 30
0.0000
  0
VERTEX
  8
0
 10
-0.2071
 20
-0.5000
 30
0.0000
  0
SEQEND
  8
0
  0
ENDBLK
  8
0
  0
BLOCK
  8
0
  2
SQUAREV
 70
64
 10
0.0000
 20
0.0000
 30
0.0000
  3
SQUAREV
  0
SOLID
  8
0
 10
-0.5000
 20
-0.5000
 30
0.0000
 11
0.5000
 21
-0.5000
 31
0.0000
 12
-0.5000
 22
0.5000
 32
0.0000
 13
0.5000
 23
0.5000
 33
0.0000
  0
ENDBLK
  8
0
  0
BLOCK
  8
0
  2
ROUNDV
 70
64
 10
0.0000
 20
0.0000
 30
0.0000
  3
ROUNDV
  0
CIRCLE
  8
0
 10
0.0000
 20
0.0000
 30
0.0000
 40
0.5000
  0
ENDBLK
  8
0
  0
BLOCK
  8
0
  2
ANNULUSV
 70
64
 10
0.0000
 20
0.0000
 30
0.0000
  3
ANNULUSV
  0
CIRCLE
  8
0
 10
0.0000
 20
0.0000
 30
0.0000
 40
0.5000
  0
ENDBLK
  8
0
  0
BLOCK
  8
0
  2
THERMALV
 70
64
 10
0.0000
 20
0.0000
 30
0.0000
  3
THERMALV
  0
LINE
  8
0
 10
-0.2379
 20
0.4500
 30
0.0000
 11
0.2379
 21
0.4500
 31
0.0000
  0
LINE
  8
0
 10
0.4500
 20
0.2379
 30
0.0000
 11
0.4500
 21
-0.2379
 31
0.0000
  0
LINE
  8
0
 10
0.2379
 20
-0.4500
 30
0.0000
 11
-0.2379
 21
-0.4500
 31
0.0000
  0
LINE
  8
0
 10
-0.4500
 20
-0.2379
 30
0.0000
 11
-0.4500
 21
0.2379
 31
0.0000
  0
ENDBLK
  8
0
  0
ENDSEC
  0
SECTION
  2
ENTITIES
  0
LINE
  8
20
 10
11.0000
 20
-0.5000
 30
0.0000
 11
3.0000
 21
-0.5000
 31
0.0000
  0
ARC
  8
20
 10
3.0000
 20
1.5000
 30
0.0000
 40
2.0000
 50
180.0000
 51
270.0000
  0
LINE
  8
20
 10
1.0000
 20
1.5000
 30
0.0000
 11
1.0000
 21
9.0000
 31
0.0000
  0
ARC
  8
20
 10
3.0000
 20
9.0000
 30
0.0000
 40
2.0000
 50
90.0000
 51
180.0000
  0
LINE
  8
20
 10
3.0000
 20
11.0000
 30
0.0000
 11
6.0000
 21
11.0000
 31
0.0000
  0
ARC
  8
20
 10
6.0000
 20
12.0000
 30
0.0000
 40
1.0000
 50
270.0000
 51
0.0000
  0
LINE
  8
20
 10
7.0000
 20
12.0000
 30
0.0000
 11
7.0000
 21
36.0000
 31
0.0000
  0
ARC
  8
20
 10
6.0000
 20
36.0000
 30
0.0000
 40
1.0000
 50
0.0000
 51
90.0000
  0
LINE
  8
20
 10
6.0000
 20
37.0000
 30
0.0000
 11
3.0000
 21
37.0000
 31
0.0000
  0
ARC
  8
20
 10
3.0000
 20
39.0000
 30
0.0000
 40
2.0000
 50
180.0000
 51
270.0000
  0
LINE
  8
20
 10
1.0000
 20
39.0000
 30
0.0000
 11
1.0000
 21
46.5000
 31
0.0000
  0
ARC
  8
20
 10
3.0000
 20
46.5000
 30
0.0000
 40
2.0000
 50
90.0000
 51
180.0000
  0
LINE
  8
20
 10
3.0000
 20
48.5000
 30
0.0000
 11
11.0000
 21
48.5000
 31
0.0000
  0
ARC
  8
20
 10
11.0000
 20
46.5000
 30
0.0000
 40
2.0000
 50
0.0000
 51
90.0000
  0
LINE
  8
20
 10
13.0000
 20
46.5000
 30
0.0000
 11
13.0000
 21
42.0000
 31
0.0000
  0
ARC
  8
20
 10
14.0000
 20
42.0000
 30
0.0000
 40
1.0000
 50
180.0000
 51
270.0000
  0
LINE
  8
20
 10
14.0000
 20
41.0000
 30
0.0000
 11
44.0000
 21
41.0000
 31
0.0000
  0
ARC
  8
20
 10
44.0000
 20
42.0000
 30
0.0000
 40
1.0000
 50
270.0000
 51
0.0000
  0
LINE
  8
20
 10
45.0000
 20
42.0000
 30
0.0000
 11
45.0000
 21
46.5000
 31
0.0000
  0
ARC
  8
20
 10
47.0000
 20
46.5000
 30
0.0000
 40
2.0000
 50
90.0000
 51
180.0000
  0
LINE
  8
20
 10
47.0000
 20
48.5000
 30
0.0000
 11
74.0000
 21
48.5000
 31
0.0000
  0
ARC
  8
20
 10
74.0000
 20
46.5000
 30
0.0000
 40
2.0000
 50
0.0000
 51
90.0000
  0
LINE
  8
20
 10
76.0000
 20
46.5000
 30
0.0000
 11
76.0000
 21
42.0000
 31
0.0000
  0
ARC
  8
20
 10
77.0000
 20
42.0000
 30
0.0000
 40
1.0000
 50
180.0000
 51
270.0000
  0
LINE
  8
20
 10
77.0000
 20
41.0000
 30
0.0000
 11
88.0000
 21
41.0000
 31
0.0000
  0
ARC
  8
20
 10
88.0000
 20
42.0000
 30
0.0000
 40
1.0000
 50
270.0000
 51
0.0000
  0
LINE
  8
20
 10
89.0000
 20
42.0000
 30
0.0000
 11
89.0000
 21
46.5000
 31
0.0000
  0
ARC
  8
20
 10
91.0000
 20
46.5000
 30
0.0000
 40
2.0000
 50
90.0000
 51
180.0000
  0
LINE
  8
20
 10
91.0000
 20
48.5000
 30
0.0000
 11
106.5000
 21
48.5000
 31
0.0000
  0
ARC
  8
20
 10
106.5000
 20
46.5000
 30
0.0000
 40
2.0000
 50
0.0000
 51
90.0000
  0
LINE
  8
20
 10
108.5000
 20
46.5000
 30
0.0000
 11
108.5000
 21
1.5000
 31
0.0000
  0
ARC
  8
20
 10
106.5000
 20
1.5000
 30
0.0000
 40
2.0000
 50
270.0000
 51
0.0000
  0
LINE
  8
20
 10
106.5000
 20
-0.5000
 30
0.0000
 11
70.0000
 21
-0.5000
 31
0.0000
  0
ARC
  8
20
 10
70.0000
 20
1.5000
 30
0.0000
 40
2.0000
 50
180.0000
 51
270.0000
  0
LINE
  8
20
 10
68.0000
 20
1.5000
 30
0.0000
 11
68.0000
 21
6.0000
 31
0.0000
  0
ARC
  8
20
 10
67.0000
 20
6.0000
 30
0.0000
 40
1.0000
 50
0.0000
 51
90.0000
  0
LINE
  8
20
 10
67.0000
 20
7.0000
 30
0.0000
 11
14.0000
 21
7.0000
 31
0.0000
  0
ARC
  8
20
 10
14.0000
 20
6.0000
 30
0.0000
 40
1.0000
 50
90.0000
 51
180.0000
  0
LINE
  8
20
 10
13.0000
 20
6.0000
 30
0.0000
 11
13.0000
 21
1.5000
 31
0.0000
  0
ARC
  8
20
 10
11.0000
 20
1.5000
 30
0.0000
 40
2.0000
 50
270.0000
 51
0.0000
  0
LINE
  8
20
 10
11.0000
 20
49.5000
 30
0.0000
 11
3.0000
 21
49.5000
 31
0.0000
  0
ARC
  8
20
 10
3.0000
 20
51.5000
 30
0.0000
 40
2.0000
 50
180.0000
 51
270.0000
  0
LINE
  8
20
 10
1.0000
 20
51.5000
 30
0.0000
 11
1.0000
 21
59.0000
 31
0.0000
  0
ARC
  8
20
 10
3.0000
 20
59.0000
 30
0.0000
 40
2.0000
 50
90.0000
 51
180.0000
  0
LINE
  8
20
 10
3.0000
 20
61.0000
 30
0.0000
 11
6.0000
 21
61.0000
 31
0.0000
  0
ARC
  8
20
 10
6.0000
 20
62.0000
 30
0.0000
 40
1.0000
 50
270.0000
 51
0.0000
  0
LINE
  8
20
 10
7.0000
 20
62.0000
 30
0.0000
 11
7.0000
 21
86.0000
 31
0.0000
  0
ARC
  8
20
 10
6.0000
 20
86.0000
 30
0.0000
 40
1.0000
 50
0.0000
 51
90.0000
  0
LINE
  8
20
 10
6.0000
 20
87.0000
 30
0.0000
 11
3.0000
 21
87.0000
 31
0.0000
  0
ARC
  8
20
 10
3.0000
 20
89.0000
 30
0.0000
 40
2.0000
 50
180.0000
 51
270.0000
  0
LINE
  8
20
 10
1.0000
 20
89.0000
 30
0.0000
 11
1.0000
 21
96.5000
 31
0.0000
  0
ARC
  8
20
 10
3.0000
 20
96.5000
 30
0.0000
 40
2.0000
 50
90.0000
 51
180.0000
  0
LINE
  8
20
 10
3.0000
 20
98.5000
 30
0.0000
 11
11.0000
 21
98.5000
 31
0.0000
  0
ARC
  8
20
 10
11.0000
 20
96.5000
 30
0.0000
 40
2.0000
 50
0.0000
 51
90.0000
  0
LINE
  8
20
 10
13.0000
 20
96.5000
 30
0.0000
 11
13.0000
 21
92.0000
 31
0.0000
  0
ARC
  8
20
 10
14.0000
 20
92.0000
 30
0.0000
 40
1.0000
 50
180.0000
 51
270.0000
  0
LINE
  8
20
 10
14.0000
 20
91.0000
 30
0.0000
 11
44.0000
 21
91.0000
 31
0.0000
  0
ARC
  8
20
 10
44.0000
 20
92.0000
 30
0.0000
 40
1.0000
 50
270.0000
 51
0.0000
  0
LINE
  8
20
 10
45.0000
 20
92.0000
 30
0.0000
 11
45.0000
 21
96.5000
 31
0.0000
  0
ARC
  8
20
 10
47.0000
 20
96.5000
 30
0.0000
 40
2.0000
 50
90.0000
 51
180.0000
  0
LINE
  8
20
 10
47.0000
 20
98.5000
 30
0.0000
 11
74.0000
 21
98.5000
 31
0.0000
  0
ARC
  8
20
 10
74.0000
 20
96.5000
 30
0.0000
 40
2.0000
 50
0.0000
 51
90.0000
  0
LINE
  8
20
 10
76.0000
 20
96.5000
 30
0.0000
 11
76.0000
 21
92.0000
 31
0.0000
  0
ARC
  8
20
 10
77.0000
 20
92.0000
 30
0.0000
 40
1.0000
 50
180.0000
 51
270.0000
  0
LINE
  8
20
 10
77.0000
 20
91.0000
 30
0.0000
 11
88.0000
 21
91.0000
 31
0.0000
  0
ARC
  8
20
 10
88.0000
 20
92.0000
 30
0.0000
 40
1.0000
 50
270.0000
 51
0.0000
  0
LINE
  8
20
 10
89.0000
 20
92.0000
 30
0.0000
 11
89.0000
 21
96.5000
 31
0.0000
  0
ARC
  8
20
 10
91.0000
 20
96.5000
 30
0.0000
 40
2.0000
 50
90.0000
 51
180.0000
  0
LINE
  8
20
 10
91.0000
 20
98.5000
 30
0.0000
 11
106.5000
 21
98.5000
 31
0.0000
  0
ARC
  8
20
 10
106.5000
 20
96.5000
 30
0.0000
 40
2.0000
 50
0.0000
 51
90.0000
  0
LINE
  8
20
 10
108.5000
 20
96.5000
 30
0.0000
 11
108.5000
 21
51.5000
 31
0.0000
  0
ARC
  8
20
 10
106.5000
 20
51.5000
 30
0.0000
 40
2.0000
 50
270.0000
 51
0.0000
  0
LINE
  8
20
 10
106.5000
 20
49.5000
 30
0.0000
 11
70.0000
 21
49.5000
 31
0.0000
  0
ARC
  8
20
 10
70.0000
 20
51.5000
 30
0.0000
 40
2.0000
 50
180.0000
 51
270.0000
  0
LINE
  8
20
 10
68.0000
 20
51.5000
 30
0.0000
 11
68.0000
 21
56.0000
 31
0.0000
  0
ARC
  8
20
 10
67.0000
 20
56.0000
 30
0.0000
 40
1.0000
 50
0.0000
 51
90.0000
  0
LINE
  8
20
 10
67.0000
 20
57.0000
 30
0.0000
 11
14.0000
 21
57.0000
 31
0.0000
  0
ARC
  8
20
 10
14.0000
 20
56.0000
 30
0.0000
 40
1.0000
 50
90.0000
 51
180.0000
  0
LINE
  8
20
 10
13.0000
 20
56.0000
 30
0.0000
 11
13.0000
 21
51.5000
 31
0.0000
  0
ARC
  8
20
 10
11.0000
 20
51.5000
 30
0.0000
 40
2.0000
 50
270.0000
 51
0.0000
  0
CIRCLE
  8
20
 10
10.0000
 20
3.0000
 30
0.0000
 40
1.1000
  0
CIRCLE
  8
20
 10
48.0000
 20
192.0000
 30
0.0000
 40
0.1750
  0
CIRCLE
  8
20
 10
92.0000
 20
3.0000
 30
0.0000
 40
1.1000
  0
CIRCLE
  8
20
 10
10.0000
 20
45.0000
 30
0.0000
 40
1.1000
  0
CIRCLE
  8
20
 10
92.0000
 20
45.0000
 30
0.0000
 40
1.1000
  0
CIRCLE
  8
20
 10
10.0000
 20
53.0000
 30
0.0000
 40
1.1000
  0
CIRCLE
  8
20
 10
92.0000
 20
53.0000
 30
0.0000
 40
1.1000
  0
CIRCLE
  8
20
 10
10.0000
 20
95.0000
 30
0.0000
 40
1.1000
  0
CIRCLE
  8
20
 10
92.0000
 20
95.0000
 30
0.0000
 40
1.1000
  0
ENDSEC
  0
EOF
